<?xml version="1.0" encoding="utf-8"?>
<!-- Generator: Adobe Illustrator 28.3.0, SVG Export Plug-In . SVG Version: 6.00 Build 0)  -->
<svg version="1.1" id="Layer_1" xmlns="http://www.w3.org/2000/svg" xmlns:xlink="http://www.w3.org/1999/xlink" x="0px" y="0px"
	 viewBox="0 0 192 192" style="enable-background:new 0 0 192 192;" xml:space="preserve">
<style type="text/css">
	.st0{fill:#2272AF;}
</style>
<g>
	<path class="st0" d="M168.4,49.3H23.6c-5.1,0-9.3,4.2-9.3,9.3v74.8c0,5.1,4.2,9.3,9.3,9.3h144.7c5.1,0,9.3-4.1,9.3-9.3V58.6
		C177.6,53.5,173.5,49.3,168.4,49.3z M53,120.5c-42.7,0-18.8-12-10.5-15.7c0.8-0.4,1.1-1.6,1.2-2.5c0-0.5-5-7.5-5-7.5
		S32.3,71.5,53,71.5s14.4,23.3,14.4,23.3s-5.1,7-5,7.5c0.1,0.9,0.3,2.1,1.2,2.5C71.8,108.4,95.7,120.5,53,120.5z M170.8,133.8
		c-0.7,0.7-1.7,1.2-2.8,1.2h-48c-2.2,0-4-1.8-4-4c0-1.1,0.5-2.1,1.2-2.8c0.7-0.7,1.7-1.2,2.8-1.2h48c2.2,0,4,1.8,4,4
		C172,132.1,171.5,133.1,170.8,133.8z M170.8,119.8c-0.7,0.7-1.7,1.2-2.8,1.2h-58c-2.2,0-4-1.8-4-4c0-1.1,0.5-2.1,1.2-2.8
		c0.7-0.7,1.7-1.2,2.8-1.2h58c2.2,0,4,1.8,4,4C172,118.1,171.5,119.1,170.8,119.8z M171,80c-0.6,0.6-1.5,1-2.5,1h-59
		c-1.9,0-3.5-1.6-3.5-3.5c0-1,0.4-1.8,1-2.5c0.6-0.6,1.5-1,2.5-1h59c1.9,0,3.5,1.6,3.5,3.5C172,78.5,171.6,79.3,171,80z M170.2,65.2
		c-1.1,1.1-2.6,1.8-4.2,1.8h-66c-3.3,0-6-2.7-6-6c0-1.7,0.7-3.2,1.8-4.2c1.1-1.1,2.6-1.8,4.2-1.8h66c3.3,0,6,2.7,6,6
		C172,62.7,171.3,64.2,170.2,65.2z"/>
</g>
</svg>
